<?xml version="1.0" standalone="no"?>
<!DOCTYPE svg PUBLIC "-//W3C//DTD SVG 1.1//EN" "http://www.w3.org/Graphics/SVG/1.1/DTD/svg11.dtd" >
<svg xmlns="http://www.w3.org/2000/svg">
<metadata>Generated by IcoMoon</metadata>
<defs>
<font id="icomoon" horiz-adv-x="1024">
<font-face units-per-em="1024" ascent="960" descent="-64" />
<missing-glyph horiz-adv-x="1024" />
<glyph unicode="&#x20;" horiz-adv-x="512" d="" />
<glyph unicode="&#xe900;" glyph-name="air-conditioning" d="M881.020 274.445l-89.131 50.039 77.239 44.288c14.246 8.171 18.987 26.022 10.586 39.876-8.401 13.85-26.756 18.458-41.007 10.291l-106.398-61.009-160.422 90.069 160.397 90.056 106.428-61c4.774-2.739 10.010-4.036 15.177-4.036 10.253 0 20.241 5.129 25.826 14.34 8.397 13.854 3.652 31.706-10.594 39.876l-77.248 44.273 89.148 50.051c14.323 8.041 19.23 25.851 10.961 39.778-8.269 13.931-26.586 18.703-40.905 10.658l-89.131-50.044-0.811 87.209c-0.149 16.082-13.717 29.077-30.212 28.856-16.538-0.144-29.828-13.298-29.675-29.38l1.114-120.133-160.414-90.067v180.118l107.55 59.11c14.4 7.913 19.473 25.676 11.337 39.68-8.137 14.001-26.406 18.94-40.806 11.023l-78.080-42.915v100.095c0 16.082-13.406 29.12-29.948 29.12-16.538 0-29.943-13.038-29.943-29.12v-100.095l-78.081 42.911c-14.406 7.917-32.664 2.982-40.806-11.023-8.137-14.001-3.062-31.768 11.335-39.681l107.547-59.109v-180.114l-160.414 90.067 1.114 120.133c0.152 16.082-13.136 29.236-29.674 29.38-0.092 0-0.18 0-0.275 0-16.41 0-29.79-12.864-29.937-28.86l-0.81-87.205-89.129 50.044c-14.321 8.045-32.636 3.269-40.905-10.658s-3.362-31.737 10.96-39.778l89.145-50.051-77.263-44.281c-14.246-8.166-18.989-26.018-10.592-39.876 5.585-9.212 15.572-14.336 25.829-14.336 5.167 0 10.401 1.297 15.176 4.032l106.441 61.001 160.401-90.053-160.428-90.069-106.414 61.018c-14.238 8.166-32.604 3.563-41.005-10.291s-3.661-31.706 10.585-39.872l77.251-44.292-89.129-50.039c-14.322-8.043-19.229-25.852-10.96-39.778 5.546-9.344 15.612-14.566 25.961-14.566 5.079 0 10.229 1.259 14.945 3.908l89.129 50.044 0.811-87.215c0.148-15.991 13.527-28.86 29.937-28.86 0.092 0 0.184 0 0.276 0.004 16.538 0.145 29.825 13.299 29.674 29.38l-1.114 120.137 160.418 90.069v-180.122l-107.547-59.11c-14.397-7.915-19.472-25.677-11.335-39.68 5.506-9.472 15.651-14.797 26.096-14.797 4.991 0 10.054 1.216 14.709 3.772l78.081 42.914v-100.096c0-16.081 13.406-29.12 29.943-29.12 16.542 0 29.948 13.039 29.948 29.12v100.096l78.080-42.914c4.655-2.556 9.715-3.772 14.711-3.772 10.445 0 20.591 5.325 26.095 14.797 8.137 13.999 3.063 31.765-11.337 39.68l-107.55 59.11v180.117l160.414-90.065-1.143-120.132c-0.154-16.081 13.129-29.239 29.666-29.389 0.098-0.004 0.188-0.004 0.286-0.004 16.405 0 29.786 12.864 29.935 28.855l0.832 87.223 89.139-50.048c4.719-2.65 9.869-3.908 14.946-3.908 10.351 0 20.416 5.227 25.963 14.566 8.269 13.926 3.362 31.735-10.965 39.778z" />
<glyph unicode="&#xe901;" glyph-name="alert" d="M512 64c47.091 0 85.295 38.199 85.295 85.333h-170.59c0-47.134 38.204-85.333 85.295-85.333zM799.185 263.612c-25.758 27.682-73.958 69.321-73.958 205.722 0 103.6-72.64 186.534-170.586 206.88v27.787c0 23.56-19.093 42.667-42.641 42.667s-42.641-19.107-42.641-42.667v-27.787c-97.945-20.346-170.585-103.28-170.585-206.88 0-136.401-48.2-178.039-73.96-205.722-8-8.597-11.546-18.88-11.48-28.945 0.147-21.867 17.307-42.667 42.8-42.667h511.734c25.493 0 42.667 20.8 42.799 42.667 0.064 10.065-3.482 20.361-11.482 28.945z" />
<glyph unicode="&#xe902;" glyph-name="business-center" d="M128 21.333v85.333h85.333v768l597.333-256v-512h85.333v-85.333h-768zM384 192h-85.333v-85.333h85.333v85.333zM554.667 192h-85.333v-85.333h85.333v85.333zM725.333 192h-85.333v-85.333h85.333v85.333zM384 362.667h-85.333v-85.333h85.333v85.333zM554.667 362.667h-85.333v-85.333h85.333v85.333zM725.333 362.667h-85.333v-85.333h85.333v85.333zM384 533.333h-85.333v-85.333h85.333v85.333zM554.667 533.333h-85.333v-85.333h85.333v85.333zM725.333 533.333h-85.333v-85.333h85.333v85.333zM384 704h-85.333v-85.333h85.333v85.333z" />
<glyph unicode="&#xe903;" glyph-name="calendar" d="M213.333 170.667c0-35.332 28.667-64 64-64h469.333c35.332 0 64 28.668 64 64v362.667h-597.333v-362.667zM640 432c0 8.802 7.198 16 16 16h53.333c8.802 0 16-7.198 16-16v-53.333c0-8.802-7.198-16-16-16h-53.333c-8.802 0-16 7.198-16 16v53.333zM640 261.333c0 8.802 7.198 16 16 16h53.333c8.802 0 16-7.198 16-16v-53.333c0-8.802-7.198-16-16-16h-53.333c-8.802 0-16 7.198-16 16v53.333zM469.333 432c0 8.802 7.198 16 16 16h53.333c8.802 0 16-7.198 16-16v-53.333c0-8.802-7.198-16-16-16h-53.333c-8.802 0-16 7.198-16 16v53.333zM469.333 261.333c0 8.802 7.198 16 16 16h53.333c8.802 0 16-7.198 16-16v-53.333c0-8.802-7.198-16-16-16h-53.333c-8.802 0-16 7.198-16 16v53.333zM298.667 432c0 8.802 7.2 16 16 16h53.333c8.8 0 16-7.198 16-16v-53.333c0-8.802-7.2-16-16-16h-53.333c-8.8 0-16 7.198-16 16v53.333zM298.667 261.333c0 8.802 7.2 16 16 16h53.333c8.8 0 16-7.198 16-16v-53.333c0-8.802-7.2-16-16-16h-53.333c-8.8 0-16 7.198-16 16v53.333zM746.667 704h-64v64c0 11.733-9.6 21.333-21.333 21.333h-42.667c-11.733 0-21.333-9.6-21.333-21.333v-64h-170.667v64c0 11.733-9.6 21.333-21.333 21.333h-42.667c-11.733 0-21.333-9.6-21.333-21.333v-64h-64c-35.333 0-64-28.667-64-64v-64h597.333v64c0 35.333-28.668 64-64 64z" />
<glyph unicode="&#xe904;" glyph-name="close" d="M810.667 686.507l-60.16 60.16-238.507-238.507-238.507 238.507-60.16-60.16 238.507-238.507-238.507-238.507 60.16-60.16 238.507 238.507 238.507-238.507 60.16 60.16-238.507 238.507 238.507 238.507z" />
<glyph unicode="&#xe905;" glyph-name="degree" d="M512 746.667l-384-199.111 384-199.11 314.18 162.94v-229.312h69.82v265.482l-384 199.111zM267.636 408.841v-132.74l244.364-126.767 244.365 126.767v132.74l-244.365-126.767-244.364 126.767z" />
<glyph unicode="&#xe906;" glyph-name="dishwashers-1" d="M809.728 584.761c0.132-2.927 0.333-5.222 0.333-7.516 0-170.546-0.119-341.093 0.145-511.636 0.026-14.357-4.403-24.563-17.98-30.050h-561.554c-13.468 6.199-17.351 16.879-17.323 31.326l0.229 254.263-0.017 263.613 174.982-0.022c14.869-54.226 64.508-94.072 123.456-94.072 58.944 0 108.587 39.846 123.452 94.072l174.276 0.022zM590.327 584.752c-13.12-30.255-43.251-51.418-78.327-51.418s-65.212 21.164-78.327 51.418h156.655zM792.226 832c13.589-5.485 18.125-15.677 17.997-30.057-0.491-53.132-0.196-106.271-0.196-159.407v-9.903h-596.466v8.634c0 53.135 0.341 106.275-0.228 159.406-0.15 14.464 3.853 25.137 17.339 31.327h561.555zM576 746.667h-128c-11.785 0-21.335-9.551-21.335-21.333 0-10.473 7.545-19.183 17.499-20.989l3.836-0.344h128c11.78 0 21.333 9.551 21.333 21.333s-9.553 21.333-21.333 21.333z" />
<glyph unicode="&#xe907;" glyph-name="dryer" d="M809.728 584.761c0.132-2.927 0.333-5.222 0.333-7.516 0-170.546-0.119-341.093 0.145-511.636 0.026-14.357-4.403-24.563-17.98-30.050h-561.554c-13.468 6.199-17.351 16.879-17.323 31.326l0.229 254.263-0.017 263.613h596.167zM366.023 403.426c-23.532-35.541-23.653-81.758-0.090-117.329 8.267-17.378 8.176-37.38-0.090-54.758l31.226-31.287 4.143 6.788c19.335 34.517 18.010 77.222-4.052 110.541-8.267 17.378-8.176 37.385 0.121 54.793l-31.256 31.253zM512.832 403.426c-23.535-35.541-23.654-81.758-0.094-117.329 8.269-17.378 8.179-37.38-0.090-54.758l31.228-31.287 4.143 6.788c19.332 34.517 18.010 77.222-4.053 110.541-8.265 17.378-8.175 37.385 0.119 54.793l-31.253 31.253zM640.832 403.426c-23.535-35.541-23.654-81.758-0.094-117.329 8.269-17.378 8.179-37.38-0.090-54.758l31.228-31.287 4.143 6.788c19.332 34.517 18.010 77.222-4.053 110.541-8.265 17.378-8.175 37.385 0.119 54.793l-31.253 31.253zM792.226 832c13.589-5.485 18.125-15.677 17.997-30.057-0.491-53.132-0.196-106.271-0.196-159.407v-9.903h-596.466v8.634c0 53.135 0.341 106.275-0.228 159.406-0.15 14.464 3.853 25.137 17.339 31.327h561.555zM561.609 751.066c-12.787-0.151-23.040-10.626-22.98-23.488 0.055-12.719 10.701-23.209 23.407-23.067 12.582 0.14 23.27 11.015 23.134 23.531-0.137 12.623-10.931 23.171-23.561 23.024zM662.007 751.103c-12.595 0.126-23.445-10.435-23.62-22.994-0.171-12.415 10.556-23.365 23.117-23.593 12.629-0.23 23.39 10.337 23.462 23.038 0.073 12.823-10.261 23.422-22.959 23.549zM462.123 751.103c-12.783 0.167-23.309-10.151-23.445-22.977-0.141-12.866 10.095-23.439 22.852-23.613 12.617-0.169 23.42 10.359 23.62 23.024 0.205 12.605-10.347 23.402-23.027 23.567zM361.508 751.103c-12.6-0.188-23.245-11.078-23.040-23.574 0.207-12.575 11.096-23.144 23.668-22.973 12.817 0.175 22.952 10.676 22.795 23.619-0.157 12.928-10.567 23.117-23.424 22.927z" />
<glyph unicode="&#xe908;" glyph-name="filter" d="M426.667 149.333h170.667v85.333h-170.667v-85.333zM128 661.333v-85.333h768v85.333h-768zM256 362.667h512v85.333h-512v-85.333z" />
<glyph unicode="&#xe909;" glyph-name="freezer" d="M569.634 874.667c33.225 0 60.621-25.44 63.727-57.866l0.294-6.157 0.030-38.204-4.463-1.76c29.675 12.029 62.123 18.655 96.115 18.655 141.385 0 256-114.615 256-256s-114.615-256-256-256c-34.633 0-67.652 6.874-97.779 19.337l6.127-2.441-0.030-208.875c0-33.225-25.442-60.621-57.865-63.727l-6.157-0.294h-334.595c-33.227 0-60.622 25.442-63.73 57.865l-0.294 6.157v457.744l298.501 0.003-0.179-9.769c0 15.412 1.361 30.506 3.968 45.168l-0.644-3.788-301.646-0.028v235.958c0 33.227 25.442 60.622 57.866 63.73l6.157 0.294h334.595zM725.338 746.667c-117.824 0-213.333-95.513-213.333-213.333s95.509-213.333 213.333-213.333c117.82 0 213.333 95.514 213.333 213.333s-95.514 213.333-213.333 213.333zM725.338 704c6.43 0 11.644-5.215 11.644-11.648v-40.038l30.366 17.166c5.598 3.167 12.702 1.191 15.868-4.409 3.166-5.602 1.19-12.707-4.407-15.872l-41.826-23.644v-72.047l62.383 36.026-0.431 48.053c-0.060 6.433 5.107 11.695 11.537 11.752 6.417 0.088 11.695-5.11 11.75-11.543l0.316-34.883 34.662 20.017c5.568 3.218 12.689 1.309 15.906-4.263 3.217-5.571 1.306-12.695-4.262-15.911l-34.667-20.020 30.042-17.71c5.538-3.268 7.381-10.409 4.117-15.95-2.172-3.685-6.054-5.735-10.044-5.735-2.010 0-4.045 0.519-5.901 1.614l-41.391 24.4-62.374-36.022 62.387-36.029 41.378 24.405c5.538 3.264 12.676 1.421 15.945-4.117 3.268-5.542 1.425-12.685-4.117-15.953l-30.037-17.715 34.662-20.015c5.572-3.217 7.479-10.338 4.262-15.91-2.155-3.738-6.067-5.824-10.095-5.824-1.975 0-3.977 0.499-5.811 1.562l-34.667 20.019-0.32-34.893c-0.060-6.396-5.265-11.537-11.644-11.537-6.541 0.060-11.708 5.321-11.648 11.755l0.444 48.055-62.383 36.023v-72.047l41.826-23.646c5.598-3.162 7.573-10.27 4.407-15.872-2.142-3.789-6.084-5.918-10.146-5.918-1.946 0-3.913 0.486-5.722 1.51l-30.366 17.165v-40.038c0-6.434-5.214-11.648-11.644-11.648-6.434 0-11.648 5.214-11.648 11.648v40.038l-30.362-17.165c-1.813-1.024-3.78-1.51-5.722-1.51-4.062 0-8.009 2.129-10.15 5.918-3.162 5.602-1.19 12.71 4.407 15.872l41.826 23.646v72.047l-62.387-36.023 0.435-48.055c0.060-6.434-5.107-11.695-11.541-11.755-6.485 0-11.691 5.146-11.746 11.546l-0.316 34.884-34.662-20.019c-1.835-1.058-3.836-1.562-5.811-1.562-4.023 0-7.94 2.086-10.095 5.824-3.217 5.572-1.31 12.698 4.262 15.91l34.658 20.019-30.042 17.715c-5.538 3.268-7.381 10.406-4.113 15.949 3.264 5.542 10.406 7.386 15.945 4.117l41.382-24.41 62.387 36.028-62.374 36.023-41.395-24.4c-1.856-1.094-3.891-1.614-5.901-1.614-3.989 0-7.872 2.050-10.044 5.735-3.268 5.543-1.421 12.684 4.117 15.95l30.046 17.713-34.667 20.020c-5.568 3.216-7.479 10.34-4.262 15.911s10.338 7.481 15.906 4.263l34.662-20.017 0.316 34.882c0.055 6.398 5.261 11.544 11.644 11.544 6.537-0.058 11.703-5.319 11.644-11.752l-0.431-48.053 62.383-36.026v72.045l-41.826 23.644c-5.598 3.165-7.569 10.272-4.407 15.872 3.166 5.602 10.27 7.576 15.872 4.409l30.362-17.164v40.038c0 6.433 5.214 11.648 11.648 11.648zM277.335 448c-10.472 0-19.183-5.828-20.989-13.517l-0.344-2.961v-52.378c0-9.101 9.55-16.478 21.333-16.478 10.472 0 19.183 5.828 20.99 13.517l0.343 2.961v52.378c0 9.101-9.55 16.478-21.333 16.478zM277.335 704c-10.472 0-19.183-5.828-20.989-13.515l-0.344-2.962v-52.379c0-9.099 9.55-16.477 21.333-16.477 10.472 0 19.183 5.828 20.99 13.515l0.343 2.962v52.379c0 9.099-9.55 16.477-21.333 16.477z" />
<glyph unicode="&#xe90a;" glyph-name="hair-dryer" d="M310.333 832c66.684 0 300.337-41.57 457.731-71.309l0.009-307.311c-99.695-18.684-230.822-42.197-328.124-57.054 13.188-72.828 45.385-259.499 45.385-264.324 0-66.359-25.242-100.002-75-100.002-16.322 0-211.645 374.622-239.355 398.609l-0.525 0.538-7.109 5.82c-49.74 42.837-78.011 104.192-78.011 170.033 0 124.002 101.002 225 225 225zM810.667 752.597l2.999-0.596c48.175-9.469 84.484-16.568 98.871-19.337l6.127-1.164c10.227-2.222 18.078-10.37 19.695-20.582l0.307-3.919v-200c0-11.998-8.495-21.999-20.002-24.499l-1.792-0.405c-8.247-1.715-43.648-8.491-93.662-18.231l-9.545-1.86-2.999-0.521v291.115zM298.667 692.333c-47.066 0-85.333-38.283-85.333-85.333s38.267-85.332 85.333-85.332c47.066 0 85.333 38.281 85.333 85.332s-38.267 85.333-85.333 85.333z" />
<glyph unicode="&#xe90b;" glyph-name="heart" d="M752.687 666.074c-63.932 57.818-159.014 47.418-217.694-16.838l-22.985-25.133-22.985 25.133c-58.564 64.256-153.762 74.656-217.694 16.838-73.265-66.361-77.115-185.464-11.549-257.396l225.745-247.369c14.583-15.97 38.268-15.97 52.851 0l225.745 247.369c65.681 71.932 61.833 191.035-11.435 257.396z" />
<glyph unicode="&#xe90c;" glyph-name="iron" d="M927.825 277.325c6.455-48.781 10.842-82.039 10.842-82.325 0-9.826-7.953-17.775-17.779-17.775h-817.778c-9.578 0-17.762 7.74-17.775 17.318-0.043 28.685 3.931 56.457 11.391 82.778l831.1 0.004zM787.785 746.115c44.561 0 82.236-32.985 88.124-77.153 0 0 27.678-208.567 46.272-348.987l-809.777 0.021c47.636 104.452 153.053 177.229 275.153 177.229h439.516l-21.649 162.353c-1.178 8.83-8.713 15.425-17.621 15.425h-397.743c-9.818 0-17.778 7.96-17.778 17.778v35.555c0 9.82 7.96 17.778 17.778 17.778h397.725z" />
<glyph unicode="&#xe90d;" glyph-name="key" d="M534.69 519.113c-28.625 82.843-106.125 142.221-197.236 142.221-115.549 0-209.455-95.645-209.455-213.333 0-117.687 93.905-213.333 209.455-213.333 91.111 0 168.611 59.379 197.236 142.221h151.855v-142.221h139.635v142.221h69.82v142.225h-361.31zM337.455 376.887c-38.4 0-69.818 32-69.818 71.113s31.418 71.113 69.818 71.113c38.4 0 69.818-32 69.818-71.113s-31.418-71.113-69.818-71.113z" />
<glyph unicode="&#xe90e;" glyph-name="laundry" d="M516.723 696.835l95.987-31.997 0.247 0.93 127.838-25.575 153.173-103.901-91.221-125.705-46.596 38.118c-4.395 3.601-10.479 4.348-15.616 1.903-5.137-2.432-8.414-7.612-8.405-13.303v-415.953h-441.379v421.329c0 5.824-3.434 11.098-8.765 13.453-5.323 2.355-11.544 1.353-15.848-2.573l-45.92-41.749-91.308 139.194 152.745 89.088 128.355 25.676c0.075-0.433 0.153-0.864 0.233-1.295l97.033 32.362h9.446zM512 666.924l-92.085-30.72c17.274-33.532 52.175-55.825 91.569-55.825 39.509 0 74.505 22.425 91.721 56.124l-91.204 30.421zM506.291 874.452c30.413 2.622 57.762-18.484 62.942-48.563 5.175-30.086-13.547-59.116-43.081-66.818v-31.516c0-8.132-6.596 0-14.711 0-8.128 0-14.711-8.132-14.711 0v44.138c0 8.125 6.583 14.713 14.711 14.713 16.247 0 29.423 13.175 29.423 29.425s-13.175 29.425-29.423 29.425c-16.252 0-29.427-13.175-29.427-29.425 0-8.125-6.588-14.713-14.711-14.713s-14.711 6.588-14.711 14.713c-0.043 30.524 23.287 55.998 53.7 58.621z" />
<glyph unicode="&#xe90f;" glyph-name="mdi_search" d="M661.333 362.667h-33.707l-11.947 11.52c41.813 48.64 66.987 111.787 66.987 180.48 0 153.173-124.16 277.333-277.333 277.333s-277.333-124.16-277.333-277.333c0-153.173 124.16-277.333 277.333-277.333 68.693 0 131.84 25.173 180.48 66.987l11.52-11.947v-33.707l213.333-212.907 63.573 63.573-212.907 213.333zM405.333 362.667c-106.24 0-192 85.76-192 192s85.76 192 192 192c106.24 0 192-85.76 192-192s-85.76-192-192-192z" />
<glyph unicode="&#xe910;" glyph-name="microwave" d="M298.667 85.333c0-23.565-19.103-42.667-42.667-42.667-21.881 0-39.915 16.469-42.38 37.692l-0.287 4.975v21.333h-85.333c-23.564 0-42.667 19.102-42.667 42.667v512c0 23.564 19.103 42.667 42.667 42.667h768c23.565 0 42.667-19.103 42.667-42.667v-512c0-23.565-19.102-42.667-42.667-42.667h-85.333v-21.333c0-23.565-19.102-42.667-42.667-42.667-21.879 0-39.915 16.469-42.381 37.692l-0.286 4.975v21.333h-426.667v-21.333zM640 641.939h-426.667c-21.881 0-39.915-16.471-42.38-37.69l-0.287-4.976v-341.331c0-21.884 16.471-39.919 37.691-42.381l4.976-0.286h426.667c21.879 0 39.915 16.469 42.381 37.687l0.286 4.979v341.331c0 23.564-19.102 42.667-42.667 42.667zM896 277.333h-128v-42.667h128v42.667zM832 448c-35.345 0-64-28.655-64-64s28.655-64 64-64c35.345 0 64 28.655 64 64s-28.655 64-64 64zM832 618.667c-35.345 0-64-28.654-64-64 0-35.345 28.655-64 64-64s64 28.655 64 64c0 35.346-28.655 64-64 64z" />
<glyph unicode="&#xe911;" glyph-name="parking" d="M838.665 874.667c55.142 0 100.002-44.86 100.002-100v-653.331c0-55.142-44.86-100.002-100.002-100.002h-653.331c-55.14 0-100 44.86-100 100.002v653.331c0 55.14 44.86 100 100 100h653.331zM821.73 789.333h-619.459c-17.427 0-31.605-14.178-31.605-31.605v-619.459c0-17.425 14.178-31.603 31.605-31.603h619.459c17.425 0 31.603 14.178 31.603 31.603v619.459c0 17.427-14.178 31.605-31.603 31.605zM562.001 708c91.9 0 166.665-74.767 166.665-166.667s-74.765-166.669-166.665-166.669h-166.668v-153.331c0-18.411-14.924-33.335-33.333-33.335s-33.334 14.925-33.334 33.335v444c0 23.564 19.103 42.667 42.667 42.667h190.668zM562.001 641.333h-166.668v-199.998h166.668c55.138 0 99.998 44.86 99.998 99.998 0 55.14-44.86 100-99.998 100z" />
<glyph unicode="&#xe912;" glyph-name="pets" d="M652.86 469.845c19.401-15.3 35.563-33.801 48.939-54.618 33.092-51.494 66.368-102.878 99.072-154.624 38.191-60.429 27.84-136.657-24.734-183.659-23.168-20.71-50.449-32.58-81.519-35.447-1.741-0.158-3.443-0.777-5.163-1.178h-16.226c-21.978 2.061-42.15 9.997-62.532 17.95-42.27 16.491-86.242 21.525-131.354 16.252-28.139-3.29-55.198-10.556-81.022-22.195-15.373-6.933-31.685-9.792-48.194-12.006h-16.222c-13.513 3.089-27.651 4.574-40.43 9.553-53.182 20.71-84.23 59.763-92.148 116.459-4.881 34.957 4.012 66.901 22.957 96.346 34.337 53.372 67.656 107.43 103.192 159.991 35.078 51.878 84.745 83.17 146.682 93.461 66.197 10.995 126.003-4.732 178.701-46.285zM96.112 591.727c22.037 47.873 79.915 65.246 124.877 37.621 41.529-25.517 60.047-63.743 57.755-111.746-1.912-40.055-27.441-73.173-63.347-84.19-27.505-8.439-53.272-3.452-76.984 12.134-30.132 19.806-46.539 48.384-51.989 83.661-0.219 1.417-0.721 2.79-1.091 4.186v23.242c3.516 11.732 5.708 24.075 10.779 35.091zM802.825 629.348c44.966 27.625 102.839 10.252 124.877-37.621 5.073-11.017 7.266-23.359 10.782-35.092v-23.242c-0.371-1.395-0.875-2.769-1.092-4.186-5.449-35.277-21.858-63.855-51.989-83.661-23.714-15.586-49.481-20.574-76.983-12.134-35.908 11.017-61.436 44.134-63.347 84.19-2.291 48.002 16.226 86.229 57.754 111.746zM315.193 764.314c44.403 36.648 106.122 30.608 144.165-14.221 21.675-25.542 31.386-55.453 31.799-91.722-1.242-39.083-15.633-75.222-49.557-101.656-40.090-31.232-93.692-28.113-131.539 6.906-56.726 52.489-54.188 151.734 5.132 200.693zM564.454 750.093c38.046 44.829 99.767 50.869 144.166 14.221 59.324-48.959 61.858-148.204 5.133-200.693-37.845-35.020-91.447-38.139-131.537-6.906-33.929 26.435-48.316 62.574-49.557 101.656 0.41 36.268 10.125 66.18 31.795 91.722z" />
<glyph unicode="&#xe913;" glyph-name="pin" d="M512 874.667c-165.12 0-298.667-133.547-298.667-298.667 0-224 298.667-554.667 298.667-554.667s298.667 330.667 298.667 554.667c0 165.12-133.547 298.667-298.667 298.667zM512 469.333c-58.88 0-106.667 47.787-106.667 106.667s47.787 106.667 106.667 106.667c58.88 0 106.667-47.787 106.667-106.667s-47.787-106.667-106.667-106.667z" />
<glyph unicode="&#xe914;" glyph-name="refrigerator-1" d="M761.306 85.355c0-35.302-28.719-64.021-64.021-64.021h-334.594c-35.304 0-64.023 28.719-64.023 64.021v457.744h462.639v-457.744zM404.986 448c-11.781 0-21.333-7.377-21.333-16.478v-52.378c0-9.101 9.55-16.478 21.333-16.478 11.781 0 21.333 7.377 21.333 16.478v52.378c0 9.101-9.55 16.478-21.333 16.478zM697.284 874.667c35.302 0 64.021-28.72 64.021-64.023v-235.958h-462.639v235.958c0 35.303 28.721 64.023 64.023 64.023h334.594zM404.986 704c-11.781 0-21.333-7.376-21.333-16.477v-52.379c0-9.099 9.55-16.477 21.333-16.477 11.781 0 21.333 7.376 21.333 16.477v52.379c0 9.099-9.55 16.477-21.333 16.477z" />
<glyph unicode="&#xe915;" glyph-name="shower-1" d="M448 149.333c11.785 0 21.333-9.553 21.333-21.333v-85.333c0-11.78-9.549-21.333-21.333-21.333-11.78 0-21.333 9.553-21.333 21.333v85.333c0 11.78 9.553 21.333 21.333 21.333zM576 149.333c11.78 0 21.333-9.553 21.333-21.333v-85.333c0-11.78-9.553-21.333-21.333-21.333s-21.333 9.553-21.333 21.333v85.333c0 11.78 9.553 21.333 21.333 21.333zM704 149.333c11.78 0 21.333-9.553 21.333-21.333v-85.333c0-11.78-9.553-21.333-21.333-21.333s-21.333 9.553-21.333 21.333v85.333c0 11.78 9.553 21.333 21.333 21.333zM832 149.333c11.78 0 21.333-9.553 21.333-21.333v-85.333c0-11.78-9.553-21.333-21.333-21.333s-21.333 9.553-21.333 21.333v85.333c0 11.78 9.553 21.333 21.333 21.333zM320 149.333c11.782 0 21.333-9.553 21.333-21.333v-85.333c0-11.78-9.551-21.333-21.333-21.333s-21.333 9.553-21.333 21.333v85.333c0 11.78 9.551 21.333 21.333 21.333zM192 149.333c11.782 0 21.333-9.553 21.333-21.333v-85.333c0-11.78-9.551-21.333-21.333-21.333s-21.333 9.553-21.333 21.333v85.333c0 11.78 9.551 21.333 21.333 21.333zM448 320c11.785 0 21.333-9.553 21.333-21.333v-85.333c0-11.78-9.549-21.333-21.333-21.333-11.78 0-21.333 9.553-21.333 21.333v85.333c0 11.78 9.553 21.333 21.333 21.333zM576 320c11.78 0 21.333-9.553 21.333-21.333v-85.333c0-11.78-9.553-21.333-21.333-21.333s-21.333 9.553-21.333 21.333v85.333c0 11.78 9.553 21.333 21.333 21.333zM704 320c11.78 0 21.333-9.553 21.333-21.333v-85.333c0-11.78-9.553-21.333-21.333-21.333s-21.333 9.553-21.333 21.333v85.333c0 11.78 9.553 21.333 21.333 21.333zM839.684 320c11.78 0 21.333-9.553 21.333-21.333v-85.333c0-11.78-9.553-21.333-21.333-21.333-11.785 0-21.333 9.553-21.333 21.333v85.333c0 11.78 9.549 21.333 21.333 21.333zM320 320c11.782 0 21.333-9.553 21.333-21.333v-85.333c0-11.78-9.551-21.333-21.333-21.333s-21.333 9.553-21.333 21.333v85.333c0 11.78 9.551 21.333 21.333 21.333zM192 320c11.782 0 21.333-9.553 21.333-21.333v-85.333c0-11.78-9.551-21.333-21.333-21.333s-21.333 9.553-21.333 21.333v85.333c0 11.78 9.551 21.333 21.333 21.333zM512.004 874.667c11.785 0 21.333-9.551 21.333-21.333l0.017-64.649c176.196-10.732 320.755-153.444 354.965-340.681h-752.638c34.211 187.251 178.789 329.972 355.006 340.683l-0.017 64.646c0 11.782 9.553 21.333 21.333 21.333zM42.667 405.333c0-23.565 19.103-42.667 42.667-42.667h853.333c23.565 0 42.667 19.102 42.667 42.667s-19.102 42.667-42.667 42.667h-853.333c-23.564 0-42.667-19.102-42.667-42.667z" />
<glyph unicode="&#xe916;" glyph-name="soundproof-rooms" d="M825.408 839.385c0.017 16.918-5.321 29.028-21.538 35.281h-143.334c-5.658-4.237-12.454-7.558-16.755-12.892-10.261-12.723-19.584-26.231-28.864-39.717-11.511-16.727-17.387-35.328-17.549-53.965-2.483-21.065 3.174-40.945 15.381-58.677 7.066-10.26 10.035-20.045 9.293-29.932-1.267-6.124-3.921-12.307-8.017-18.659-9.395-14.572-14.882-29.328-16.474-44.12-3.703-21.961 1.399-44.061 15.339-65.647 6.912-10.698 9.933-20.76 9.015-30.924-1.229-6.468-3.994-13.009-8.346-19.806-8.503-13.282-13.705-26.726-15.659-40.209-4.271-22.545 0.713-45.239 15.061-67.465 7.885-12.215 10.611-23.599 8.252-35.234-1.468-5.504-4.041-11.076-7.723-16.832-7.194-11.23-12.019-22.596-14.515-34.014-6.033-24.414-1.207-48.994 14.451-73.071 10.108-15.548 11.618-30.093 4.322-45.18-1.242-2.453-2.692-4.924-4.399-7.428-6.788-9.941-11.546-20.557-14.016-31.671-5.291-21.807-2.359-44.599 8.674-65.267 0.806-2.496 1.609-4.996 2.364-7.518h2.061c0.61-0.943 1.233-1.886 1.882-2.82 9.28-13.372 18.607-26.765 28.868-39.381 4.301-5.291 11.093-8.585 16.755-12.783h143.334c16.213 6.199 21.551 18.206 21.534 34.987-0.004 6.647-0.009 13.333-0.017 19.998h0.439c0 250.398-0.081 512.544 0.179 762.944zM387.961 691.665c-11.753 11.802-28.105 12.4-39.478 1.578-11.119-10.578-11.223-27.315-0.197-39.577 2.783-3.097 5.786-5.998 8.545-9.118 63.703-72.018 87.5-155.721 71.137-250.18-10.122-58.449-37.408-108.681-78.868-151.223-11.995-12.309-12.032-29.333-0.844-40.166 11.744-11.366 28.239-10.483 40.67 2.355 65.448 67.593 97.922 148.745 99.603 235.098-0.401 52.314-8.405 95.742-25.331 137.371-17.463 42.952-42.49 80.981-75.237 113.863zM180.241 512.26c-11.868-10.462-12.712-26.799-2.035-39.445 14.368-17.011 14.283-32.516-0.275-49.911-10.367-12.386-9.567-28.373 1.942-38.827 11.307-10.27 27.882-9.51 38.875 2.001 16.465 17.237 24.537 37.956 25.064 58.441 0.056 26.27-8.792 48.384-24.732 65.084-11.087 11.614-27.412 12.732-38.839 2.658zM300.861 594.723c-12.195 12.727-29.185 13.777-40.685 2.726-11.55-11.098-11.172-27.853 0.92-40.773 59.030-63.070 59.010-154.317-0.045-217.323-12.087-12.898-12.454-29.649-0.892-40.768 11.49-11.046 28.543-10.027 40.697 2.697 39.191 41.037 58.412 90.219 59.635 146.001-1.26 57.207-20.338 106.442-59.63 147.44z" />
<glyph unicode="&#xe917;" glyph-name="star" d="M479.957 725.888l-72.909-154.447-163.122-24.847c-29.253-4.433-40.976-42.111-19.762-63.692l118.015-120.154-27.913-169.728c-5.024-30.677 25.903-53.658 51.806-39.313l145.928 80.141 145.929-80.141c25.903-14.229 56.828 8.636 51.806 39.313l-27.913 169.728 118.016 120.154c21.214 21.581 9.489 59.259-19.763 63.692l-163.123 24.847-72.909 154.447c-13.060 27.53-50.91 27.88-64.085 0z" />
<glyph unicode="&#xe918;" glyph-name="swimin-pool" d="M459.895 305.801c227.605-57.327 408.627 15.283 410.453 16.021 19.819 8.030 42.47-1.318 50.615-21.060 8.145-19.785-1.203-42.398-20.945-50.62-8.26-3.452-205.495-83.396-459.055-19.55-214.030 53.798-289.007-13.538-289.744-14.195-7.564-7.1-17.338-10.705-27.074-10.705-10.007 0-19.937 3.763-27.423 11.362-14.778 14.972-15.321 38.635-0.737 53.798l1.542 1.545c16.084 15.556 113.862 95.987 362.367 33.404zM734.11 595.408c18.27-11.21 24.009-35.064 12.8-53.333-11.132-18.23-34.871-24.012-53.141-12.918-1.161 0.661-45.769 26.416-84.83 10.979-26.428-10.497-47.177-38.601-61.683-83.645l-3.012-9.911-1.63-4.578c-3.051-8.047-10.59-37.052 24.111-62.477l6.182-4.198 88.512-55.778c-62.135-1.745-133.892 3.571-211.004 23.002-65.707 16.525-119.351 22.187-163.142 21.956 0 0 121.949 42.667 193.666 136.764 22.46 56.747 56.090 94.1 100.305 111.322 75.524 29.362 149.722-15.282 152.866-17.183zM647.881 516.86c40.764 0 73.813-33.050 73.813-73.813 0-40.806-33.050-73.852-73.813-73.852-40.768 0-73.813 33.045-73.813 73.852 0 40.764 33.045 73.813 73.813 73.813z" />
<glyph unicode="&#xe919;" glyph-name="terrace" d="M341.333 384c0-7.219 0.399-14.349 1.175-21.363l148.158 0.030v170.667h-149.333v-149.333zM341.333 277.333h-85.333v-128h85.333v128zM490.667 277.333h-64v-128h64v128zM640 277.333h-64v-128h64v128zM810.667 277.333h-85.333v-128h85.333v128zM576.043 784.567l-0.043-165.9 148.164-0.013c-9.033 81.746-69.385 148.027-148.122 165.913zM342.504 618.653l148.163 0.013-0.009 165.907c-78.757-17.875-139.122-84.163-148.154-165.92zM725.124 374.963l0.209 9.037v149.333h-149.333v-170.667l148.16-0.030c0.448 4.070 0.772 8.179 0.964 12.326zM810.667 597.333v-213.333c0-7.181-0.273-14.302-0.811-21.346l86.144 0.013c23.565 0 42.667-19.102 42.667-42.667s-19.102-42.667-42.667-42.667v-170.667c0-21.879-16.469-39.915-37.692-42.381l-4.975-0.286h-640c-23.564 0-42.667 19.102-42.667 42.667v170.667c-23.564 0-42.667 19.102-42.667 42.667s19.103 42.667 42.667 42.667l86.143-0.013c-0.536 7.044-0.809 14.165-0.809 21.346v213.333c0 153.167 124.166 277.333 277.333 277.333 153.169 0 277.333-124.166 277.333-277.333z" />
<glyph unicode="&#xe91a;" glyph-name="user" d="M490.667 418.667c112.623 0 203.998 102.127 203.998 228 0 125.875-91.375 228-203.998 228-112.625 0-204-102.125-204-228 0-125.873 91.375-228 204-228zM672 368h-78.059c-31.45-16.149-66.441-25.335-103.275-25.335s-71.683 9.186-103.275 25.335h-78.058c-100.158 0-181.333-90.726-181.333-202.667v-25.335c0-41.954 30.458-75.998 68-75.998h589.331c37.542 0 68.002 34.044 68.002 75.998v25.335c0 111.94-81.173 202.667-181.333 202.667z" />
<glyph unicode="&#xe91b;" glyph-name="washing-machine" d="M809.728 584.761c0.132-2.927 0.333-5.222 0.333-7.516 0-170.546-0.119-341.093 0.145-511.636 0.026-14.357-4.403-24.563-17.98-30.050h-561.554c-13.468 6.199-17.351 16.879-17.323 31.326l0.229 254.263-0.017 263.613h596.167zM511.97 531.964c-109.376 0.115-198.557-88.9-198.544-198.182 0.012-109.103 88.989-197.965 198.616-198.366 108.1-0.393 197.751 88.973 197.892 197.269 0.141 110.362-88.068 199.159-197.965 199.279zM437.538 465.903c51.674 29.163 114.372 24.021 158.724-6.455 24.486-16.354 44.032-39.74 55.531-67.699 14.95-33.489 15.731-80.713-0.166-116.361-17.22-41.246-51.895-72.265-91.746-85.397-0.401-0.132-0.798-0.269-1.199-0.401-29.069-9.314-62.071-10.364-93.662-0.081-37.722 10.914-77.046 44.885-92.037 83.593-21.985 49.856-15.949 109.094 19.239 153.822 0.425 0.546 0.86 1.084 1.292 1.626 0.179 0.222 0.352 0.444 0.532 0.666 11.377 14.037 25.51 26.411 42.139 35.921l0.879 0.508c0.158 0.085 0.32 0.175 0.474 0.26zM792.226 832c13.589-5.485 18.125-15.677 17.997-30.057-0.491-53.132-0.196-106.271-0.196-159.407v-9.903h-596.466v8.634c0 53.135 0.341 106.275-0.228 159.406-0.15 14.464 3.853 25.137 17.339 31.327h561.555zM561.609 751.066c-12.787-0.151-23.040-10.626-22.98-23.488 0.055-12.719 10.701-23.209 23.407-23.067 12.582 0.14 23.27 11.015 23.134 23.531-0.137 12.623-10.931 23.171-23.561 23.024zM662.007 751.103c-12.595 0.126-23.445-10.435-23.62-22.994-0.171-12.415 10.556-23.365 23.117-23.593 12.629-0.23 23.39 10.337 23.462 23.038 0.073 12.823-10.261 23.422-22.959 23.549zM462.123 751.103c-12.783 0.167-23.309-10.151-23.445-22.977-0.141-12.866 10.095-23.439 22.852-23.613 12.617-0.169 23.42 10.359 23.62 23.024 0.205 12.605-10.347 23.402-23.027 23.567zM361.508 751.103c-12.6-0.188-23.245-11.078-23.040-23.574 0.207-12.575 11.096-23.144 23.668-22.973 12.817 0.175 22.952 10.676 22.795 23.619-0.157 12.928-10.567 23.117-23.424 22.927z" />
<glyph unicode="&#xe91c;" glyph-name="weekly-cleaning" d="M853.333 149.333c44.988 0 81.843-34.812 85.099-78.963l0.235-6.37h-298.667c0 47.13 38.204 85.333 85.333 85.333h128zM213.333 277.333c47.128 0 85.333-38.204 85.333-85.333s-38.205-85.333-85.333-85.333c-47.128 0-85.333 38.204-85.333 85.333s38.205 85.333 85.333 85.333zM256.806 618.638c10.88 143.212 130.529 256.029 276.527 256.029s265.647-112.816 276.527-256.029l0.806 0.029v-85.333h42.667v-341.333h-128v341.333h42.667v85.333l-0.956-0.017c-10.769 119.613-111.292 213.35-233.711 213.35-122.417 0-222.941-93.737-233.711-213.35l-0.955 0.017 0.041-87.979c164.917-20.587 293.284-158.818 298.464-328.055l0.162-10.633h-256c0 70.694-57.308 128-128 128-68.168 0-123.889-53.286-127.783-120.478l-0.217-7.522v341.333h170.667v85.333l0.806-0.029z" />
<glyph unicode="&#xe91d;" glyph-name="wifi" d="M42.667 576l85.333-85.333c212.053 212.053 555.947 212.053 768 0l85.333 85.333c-258.987 258.987-679.253 258.987-938.667 0zM384 234.667l128-128 128 128c-70.4 70.827-185.173 70.827-256 0zM213.333 405.333l85.333-85.333c117.76 117.76 308.907 117.76 426.667 0l85.333 85.333c-164.693 164.693-432.213 164.693-597.333 0z" />
</font>
</defs>
</svg>
