<svg width="172" height="32" viewBox="0 0 172 32" fill="none" xmlns="http://www.w3.org/2000/svg">
<path d="M4.08 14.88H0V11.76H4.08V7.52C4.08 4.98667 4.56 3.10667 5.52 1.88C6.50667 0.626667 8.18667 0 10.56 0C10.96 0 11.3733 0.0133332 11.8 0.0399995C12.2533 0.0666658 12.7333 0.146666 13.24 0.279999L12.84 3.48C12.4933 3.34666 12.16 3.25333 11.84 3.2C11.52 3.14667 11.1733 3.12 10.8 3.12C10.1333 3.12 9.6 3.22666 9.2 3.44C8.8 3.62667 8.48 3.90667 8.24 4.28C8.02667 4.65333 7.88 5.10667 7.8 5.64C7.74667 6.14667 7.72 6.73333 7.72 7.4V11.76H12V14.88H7.68V30.72H4.08V14.88Z" fill="#4B154A"/>
<path d="M16.2803 0.479999H19.8803V30.72H16.2803V0.479999Z" fill="#4B154A"/>
<path d="M25.6897 14.08C26.703 13.1467 27.8764 12.4533 29.2097 12C30.543 11.52 31.8764 11.28 33.2097 11.28C34.5964 11.28 35.783 11.4533 36.7697 11.8C37.783 12.1467 38.6097 12.6133 39.2497 13.2C39.8897 13.7867 40.3564 14.4667 40.6497 15.24C40.9697 15.9867 41.1297 16.7733 41.1297 17.6V27.28C41.1297 27.9467 41.143 28.56 41.1697 29.12C41.1964 29.68 41.2364 30.2133 41.2897 30.72H38.0897C38.0097 29.76 37.9697 28.8 37.9697 27.84H37.8897C37.0897 29.0667 36.143 29.9333 35.0497 30.44C33.9564 30.9467 32.6897 31.2 31.2497 31.2C30.3697 31.2 29.5297 31.08 28.7297 30.84C27.9297 30.6 27.223 30.24 26.6097 29.76C26.023 29.28 25.5564 28.6933 25.2097 28C24.863 27.28 24.6897 26.4533 24.6897 25.52C24.6897 24.2933 24.9564 23.2667 25.4897 22.44C26.0497 21.6133 26.7964 20.9467 27.7297 20.44C28.6897 19.9067 29.7964 19.5333 31.0497 19.32C32.3297 19.08 33.6897 18.96 35.1297 18.96H37.7697V18.16C37.7697 17.68 37.6764 17.2 37.4897 16.72C37.303 16.24 37.023 15.8133 36.6497 15.44C36.2764 15.04 35.8097 14.7333 35.2497 14.52C34.6897 14.28 34.023 14.16 33.2497 14.16C32.5564 14.16 31.943 14.2267 31.4097 14.36C30.903 14.4933 30.4364 14.6667 30.0097 14.88C29.583 15.0667 29.1964 15.2933 28.8497 15.56C28.503 15.8267 28.1697 16.08 27.8497 16.32L25.6897 14.08ZM35.8497 21.6C34.9964 21.6 34.1164 21.6533 33.2097 21.76C32.3297 21.84 31.5164 22.0133 30.7697 22.28C30.0497 22.5467 29.4497 22.92 28.9697 23.4C28.5164 23.88 28.2897 24.4933 28.2897 25.24C28.2897 26.3333 28.6497 27.12 29.3697 27.6C30.1164 28.08 31.1164 28.32 32.3697 28.32C33.3564 28.32 34.1964 28.16 34.8897 27.84C35.583 27.4933 36.143 27.0533 36.5697 26.52C36.9964 25.9867 37.303 25.4 37.4897 24.76C37.6764 24.0933 37.7697 23.44 37.7697 22.8V21.6H35.8497Z" fill="#4B154A"/>
<path d="M60.32 16.08H55.04V22.56C55.04 23.0933 55.0666 23.5866 55.12 24.04C55.1733 24.4666 55.2933 24.84 55.48 25.16C55.6666 25.48 55.9466 25.7333 56.32 25.92C56.72 26.08 57.24 26.16 57.88 26.16C58.2 26.16 58.6133 26.1333 59.12 26.08C59.6533 26 60.0533 25.84 60.32 25.6V30.6C59.6533 30.84 58.96 31 58.24 31.08C57.52 31.16 56.8133 31.2 56.12 31.2C55.1066 31.2 54.1733 31.0933 53.32 30.88C52.4666 30.6666 51.72 30.3333 51.08 29.88C50.44 29.4 49.9333 28.7866 49.56 28.04C49.2133 27.2933 49.04 26.3867 49.04 25.32V16.08H45.2V11.28H49.04V5.51998H55.04V11.28H60.32V16.08Z" fill="#E71658"/>
<path d="M81.769 27.36C80.809 28.5866 79.5957 29.5333 78.129 30.2C76.6623 30.8666 75.1423 31.2 73.569 31.2C72.0757 31.2 70.6623 30.96 69.329 30.48C68.0223 30 66.8757 29.32 65.889 28.44C64.929 27.5333 64.169 26.4533 63.609 25.2C63.049 23.9466 62.769 22.5466 62.769 21C62.769 19.4533 63.049 18.0533 63.609 16.8C64.169 15.5466 64.929 14.48 65.889 13.6C66.8757 12.6933 68.0223 12 69.329 11.52C70.6623 11.04 72.0757 10.8 73.569 10.8C74.9557 10.8 76.209 11.04 77.329 11.52C78.4757 12 79.4357 12.6933 80.209 13.6C81.009 14.48 81.6223 15.5466 82.049 16.8C82.4757 18.0533 82.689 19.4533 82.689 21V22.88H68.769C69.009 24.0266 69.529 24.9466 70.329 25.64C71.129 26.3066 72.1157 26.64 73.289 26.64C74.2757 26.64 75.1023 26.4266 75.769 26C76.4623 25.5466 77.0623 24.9733 77.569 24.28L81.769 27.36ZM76.689 18.8C76.7157 17.7866 76.3823 16.92 75.689 16.2C74.9957 15.48 74.1023 15.12 73.009 15.12C72.3423 15.12 71.7557 15.2266 71.249 15.44C70.7423 15.6533 70.3023 15.9333 69.929 16.28C69.5823 16.6 69.3023 16.9866 69.089 17.44C68.9023 17.8666 68.7957 18.32 68.769 18.8H76.689Z" fill="#E71658"/>
<path d="M86.3378 11.28H92.0978V13.92H92.1778C92.3644 13.5466 92.6311 13.1733 92.9778 12.8C93.3244 12.4266 93.7378 12.0933 94.2178 11.8C94.6978 11.5066 95.2444 11.2666 95.8578 11.08C96.4711 10.8933 97.1378 10.8 97.8578 10.8C99.3778 10.8 100.604 11.04 101.538 11.52C102.471 11.9733 103.191 12.6133 103.698 13.44C104.231 14.2666 104.591 15.24 104.778 16.36C104.964 17.48 105.058 18.6933 105.058 20V30.72H99.0578V21.2C99.0578 20.64 99.0311 20.0666 98.9778 19.48C98.9511 18.8666 98.8311 18.3066 98.6178 17.8C98.4311 17.2933 98.1244 16.88 97.6978 16.56C97.2978 16.24 96.7111 16.08 95.9378 16.08C95.1644 16.08 94.5378 16.2266 94.0578 16.52C93.5778 16.7866 93.2044 17.16 92.9378 17.64C92.6978 18.0933 92.5378 18.6133 92.4578 19.2C92.3778 19.7866 92.3378 20.4 92.3378 21.04V30.72H86.3378V11.28Z" fill="#E71658"/>
<path d="M129.707 30.72H124.187V28.16H124.107C123.867 28.5066 123.547 28.8666 123.147 29.24C122.773 29.5866 122.32 29.9066 121.787 30.2C121.28 30.4933 120.707 30.7333 120.067 30.92C119.453 31.1066 118.813 31.2 118.147 31.2C116.707 31.2 115.4 30.96 114.227 30.48C113.053 29.9733 112.04 29.28 111.187 28.4C110.36 27.4933 109.72 26.4266 109.267 25.2C108.813 23.9733 108.587 22.6266 108.587 21.16C108.587 19.8 108.787 18.5066 109.187 17.28C109.613 16.0266 110.2 14.92 110.947 13.96C111.72 13 112.653 12.24 113.747 11.68C114.84 11.0933 116.08 10.8 117.467 10.8C118.72 10.8 119.88 11 120.947 11.4C122.04 11.7733 122.933 12.4266 123.627 13.36H123.707V0.47998H129.707V30.72ZM124.187 21C124.187 19.5333 123.76 18.3466 122.907 17.44C122.08 16.5333 120.907 16.08 119.387 16.08C117.867 16.08 116.68 16.5333 115.827 17.44C115 18.3466 114.587 19.5333 114.587 21C114.587 22.4666 115 23.6533 115.827 24.56C116.68 25.4667 117.867 25.92 119.387 25.92C120.907 25.92 122.08 25.4667 122.907 24.56C123.76 23.6533 124.187 22.4666 124.187 21Z" fill="#E71658"/>
<path d="M152.902 27.36C151.942 28.5866 150.728 29.5333 149.262 30.2C147.795 30.8666 146.275 31.2 144.702 31.2C143.208 31.2 141.795 30.96 140.462 30.48C139.155 30 138.008 29.32 137.022 28.44C136.062 27.5333 135.302 26.4533 134.742 25.2C134.182 23.9466 133.902 22.5466 133.902 21C133.902 19.4533 134.182 18.0533 134.742 16.8C135.302 15.5466 136.062 14.48 137.022 13.6C138.008 12.6933 139.155 12 140.462 11.52C141.795 11.04 143.208 10.8 144.702 10.8C146.088 10.8 147.342 11.04 148.462 11.52C149.608 12 150.568 12.6933 151.342 13.6C152.142 14.48 152.755 15.5466 153.182 16.8C153.608 18.0533 153.822 19.4533 153.822 21V22.88H139.902C140.142 24.0266 140.662 24.9466 141.462 25.64C142.262 26.3066 143.248 26.64 144.422 26.64C145.408 26.64 146.235 26.4266 146.902 26C147.595 25.5466 148.195 24.9733 148.702 24.28L152.902 27.36ZM147.822 18.8C147.848 17.7866 147.515 16.92 146.822 16.2C146.128 15.48 145.235 15.12 144.142 15.12C143.475 15.12 142.888 15.2266 142.382 15.44C141.875 15.6533 141.435 15.9333 141.062 16.28C140.715 16.6 140.435 16.9866 140.222 17.44C140.035 17.8666 139.928 18.32 139.902 18.8H147.822Z" fill="#E71658"/>
<path d="M157.471 11.28H163.471V14.4H163.551C164.191 13.2 164.951 12.3066 165.831 11.72C166.711 11.1066 167.817 10.8 169.151 10.8C169.497 10.8 169.844 10.8133 170.191 10.84C170.537 10.8666 170.857 10.92 171.151 11V16.48C170.724 16.3466 170.297 16.2533 169.871 16.2C169.471 16.12 169.044 16.08 168.591 16.08C167.444 16.08 166.537 16.24 165.871 16.56C165.204 16.88 164.684 17.3333 164.311 17.92C163.964 18.48 163.737 19.16 163.631 19.96C163.524 20.76 163.471 21.64 163.471 22.6V30.72H157.471V11.28Z" fill="#E71658"/>
</svg>
