<svg width="36" height="34" viewBox="0 0 36 34" fill="none" xmlns="http://www.w3.org/2000/svg">
<path d="M7.84142 16.4109H3.37785C3.23778 16.4109 3.12427 16.514 3.12427 16.6411V19.3377C3.12427 19.4648 3.23778 19.5679 3.37785 19.5679H7.84142C7.98148 19.5679 8.095 19.4648 8.095 19.3377V16.6411C8.095 16.514 7.98148 16.4109 7.84142 16.4109Z" fill="url(#paint0_radial)"/>
<path d="M28.7597 3.87402C28.4525 3.87402 28.2035 4.10007 28.2035 4.37898V9.46536C28.2035 9.74427 28.4525 9.97032 28.7597 9.97032C29.0669 9.97032 29.3158 9.74427 29.3158 9.46536V4.37898C29.3158 4.10014 29.0669 3.87402 28.7597 3.87402Z" fill="url(#paint1_radial)"/>
<path d="M29.6956 11.3867H27.8237C27.5008 11.3867 27.239 11.149 27.239 10.8559V8.99875C27.239 8.70556 27.5008 8.4679 27.8237 8.4679H29.6956C30.0185 8.4679 30.2803 8.70556 30.2803 8.99875V10.8559C30.2803 11.149 30.0185 11.3867 29.6956 11.3867Z" fill="url(#paint2_radial)"/>
<path d="M32.3371 16.7706H25.1822C24.8745 16.7706 24.6251 16.5442 24.6251 16.2649V11.3619C24.6251 11.0826 24.8745 10.8562 25.1822 10.8562H32.3371C32.6447 10.8562 32.8941 11.0826 32.8941 11.3619V16.2649C32.8941 16.5442 32.6447 16.7706 32.3371 16.7706Z" fill="url(#paint3_radial)"/>
<path d="M34.6287 34H22.0735V13.2765H34.3204C34.4907 13.2765 34.6287 13.4018 34.6287 13.5564V34Z" fill="url(#paint4_radial)"/>
<path d="M32.2806 28.8286C32.5353 28.8286 32.7417 29.0161 32.7417 29.2472V30.2154C32.7417 30.4466 32.5353 30.634 32.2806 30.634H25.0862C24.8315 30.634 24.6251 30.4465 24.6251 30.2154V29.2472C24.6251 29.016 24.8316 28.8286 25.0862 28.8286H32.2806ZM32.2806 24.6894C32.5353 24.6894 32.7417 24.8768 32.7417 25.108V26.0761C32.7417 26.3073 32.5353 26.4947 32.2806 26.4947H25.0862C24.8315 26.4947 24.6251 26.3073 24.6251 26.0761V25.108C24.6251 24.8768 24.8316 24.6894 25.0862 24.6894H32.2806ZM32.2806 20.5501C32.5353 20.5501 32.7417 20.7376 32.7417 20.9687V21.9369C32.7417 22.168 32.5353 22.3555 32.2806 22.3555H25.0862C24.8315 22.3555 24.6251 22.168 24.6251 21.9369V20.9687C24.6251 20.7375 24.8316 20.5501 25.0862 20.5501H32.2806ZM32.2806 16.4109C32.5353 16.4109 32.7417 16.5984 32.7417 16.8295V17.7977C32.7417 18.0288 32.5353 18.2163 32.2806 18.2163H25.0862C24.8315 18.2163 24.6251 18.0288 24.6251 17.7977V16.8295C24.6251 16.5983 24.8316 16.4109 25.0862 16.4109H32.2806Z" fill="#E1EFFB"/>
<path d="M25.3375 33.9999H10.8393C10.6075 33.9999 10.4196 33.8293 10.4196 33.6188V0.990725C10.4196 0.780217 10.6075 0.609619 10.8393 0.609619H25.3375C25.5694 0.609619 25.7573 0.780217 25.7573 0.990725V33.6188C25.7573 33.8293 25.5694 33.9999 25.3375 33.9999Z" fill="url(#paint5_radial)"/>
<path d="M26.4162 0H9.58363C9.46857 0 9.37524 0.084668 9.37524 0.189191V1.47189C9.37524 1.57635 9.4685 1.66109 9.58363 1.66109H26.4162C26.5313 1.66109 26.6246 1.57642 26.6246 1.47189V0.189191C26.6246 0.084668 26.5313 0 26.4162 0Z" fill="url(#paint6_radial)"/>
<path d="M19.1083 27.9005C19.2519 27.9005 19.3685 28.0062 19.3685 28.1367V30.3979C19.3684 30.5284 19.2519 30.6341 19.1083 30.6341H17.0686C16.9249 30.6341 16.8084 30.5284 16.8084 30.3979V28.1367C16.8084 28.0062 16.9249 27.9005 17.0686 27.9005H19.1083ZM23.591 27.9005C23.7346 27.9005 23.8511 28.0062 23.8511 28.1367V30.3979C23.8511 30.5284 23.7347 30.6341 23.591 30.6341H21.5512C21.4076 30.6341 21.2911 30.5284 21.2911 30.3979V28.1367C21.2911 28.0062 21.4075 27.9005 21.5512 27.9005H23.591ZM19.1083 21.8008C19.2519 21.8008 19.3685 21.9066 19.3685 22.0371V24.2983C19.3684 24.4287 19.2519 24.5345 19.1083 24.5345H17.0686C16.9249 24.5345 16.8084 24.4287 16.8084 24.2983V22.0371C16.8084 21.9066 16.9249 21.8008 17.0686 21.8008H19.1083ZM23.591 21.8008C23.7346 21.8008 23.8511 21.9066 23.8511 22.0371V24.2983C23.8511 24.4287 23.7347 24.5345 23.591 24.5345H21.5512C21.4076 24.5345 21.2911 24.4287 21.2911 24.2983V22.0371C21.2911 21.9066 21.4075 21.8008 21.5512 21.8008H23.591ZM14.6256 15.7012C14.7692 15.7012 14.8857 15.807 14.8857 15.9374V18.1986C14.8857 18.3291 14.7692 18.4348 14.6256 18.4348H12.5859C12.4422 18.4348 12.3257 18.3291 12.3257 18.1986V15.9374C12.3257 15.807 12.4421 15.7012 12.5859 15.7012H14.6256ZM19.1083 15.7012C19.2519 15.7012 19.3685 15.807 19.3685 15.9374V18.1986C19.3684 18.3291 19.2519 18.4348 19.1083 18.4348H17.0686C16.9249 18.4348 16.8084 18.3291 16.8084 18.1986V15.9374C16.8084 15.807 16.9249 15.7012 17.0686 15.7012H19.1083ZM23.591 15.7012C23.7346 15.7012 23.8511 15.807 23.8511 15.9374V18.1986C23.8511 18.3291 23.7347 18.4348 23.591 18.4348H21.5512C21.4076 18.4348 21.2911 18.3291 21.2911 18.1986V15.9374C21.2911 15.807 21.4075 15.7012 21.5512 15.7012H23.591ZM14.6256 9.60162C14.7692 9.60162 14.8857 9.70734 14.8857 9.83783V12.099C14.8857 12.2295 14.7692 12.3352 14.6256 12.3352H12.5859C12.4422 12.3352 12.3257 12.2295 12.3257 12.099V9.83783C12.3257 9.70741 12.4421 9.60162 12.5859 9.60162H14.6256ZM19.1083 9.60162C19.2519 9.60162 19.3685 9.70734 19.3685 9.83783V12.099C19.3684 12.2295 19.2519 12.3352 19.1083 12.3352H17.0686C16.9249 12.3352 16.8084 12.2295 16.8084 12.099V9.83783C16.8084 9.70741 16.9249 9.60162 17.0686 9.60162H19.1083ZM23.591 9.60162C23.7346 9.60162 23.8511 9.70734 23.8511 9.83783V12.099C23.8511 12.2295 23.7347 12.3352 23.591 12.3352H21.5512C21.4076 12.3352 21.2911 12.2295 21.2911 12.099V9.83783C21.2911 9.70741 21.4075 9.60162 21.5512 9.60162H23.591ZM14.6256 3.50208C14.7692 3.50208 14.8857 3.60779 14.8857 3.73828V5.99948C14.8857 6.1299 14.7692 6.23562 14.6256 6.23562H12.5859C12.4422 6.23562 12.3257 6.1299 12.3257 5.99941V3.73828C12.3257 3.60786 12.4421 3.50208 12.5859 3.50208H14.6256ZM19.1083 3.50208C19.2519 3.50208 19.3685 3.60779 19.3685 3.73828V5.99948C19.3684 6.1299 19.2519 6.23562 19.1083 6.23562H17.0686C16.9249 6.23562 16.8084 6.1299 16.8084 5.99941V3.73828C16.8084 3.60786 16.9249 3.50208 17.0686 3.50208H19.1083ZM23.591 3.50208C23.7346 3.50208 23.8511 3.60779 23.8511 3.73828V5.99948C23.8511 6.1299 23.7347 6.23562 23.591 6.23562H21.5512C21.4076 6.23562 21.2911 6.1299 21.2911 5.99941V3.73828C21.2911 3.60786 21.4075 3.50208 21.5512 3.50208H23.591Z" fill="#E1EFFB"/>
<path d="M17.1169 34H1.6918C1.51472 34 1.37122 33.8697 1.37122 33.709V18.8716C1.37122 18.7109 1.51472 18.5806 1.6918 18.5806H17.1169C17.294 18.5806 17.4375 18.7109 17.4375 18.8716V33.709C17.4375 33.8697 17.294 34 17.1169 34Z" fill="url(#paint7_radial)"/>
<path d="M5.61088 29.2315C5.78862 29.2315 5.93271 29.3623 5.93271 29.5237V30.691C5.93271 30.8524 5.78862 30.9832 5.61088 30.9832H3.59209C3.41435 30.9832 3.27026 30.8524 3.27026 30.691V29.5237C3.27026 29.3623 3.41435 29.2315 3.59209 29.2315H5.61088ZM10.3104 29.2315C10.4881 29.2315 10.6322 29.3623 10.6322 29.5237V30.691C10.6322 30.8524 10.4881 30.9832 10.3104 30.9832H8.29161C8.11387 30.9832 7.96979 30.8524 7.96979 30.691V29.5237C7.96979 29.3623 8.11387 29.2315 8.29161 29.2315H10.3104ZM15.0099 29.2315C15.1877 29.2315 15.3318 29.3623 15.3318 29.5237V30.691C15.3318 30.8524 15.1877 30.9832 15.0099 30.9832H12.9911C12.8134 30.9832 12.6693 30.8524 12.6693 30.691V29.5237C12.6693 29.3623 12.8134 29.2315 12.9911 29.2315H15.0099ZM5.61088 25.1343C5.78862 25.1343 5.93271 25.2651 5.93271 25.4265V26.5939C5.93271 26.7552 5.78862 26.886 5.61088 26.886H3.59209C3.41435 26.886 3.27026 26.7552 3.27026 26.5939V25.4265C3.27026 25.2651 3.41435 25.1343 3.59209 25.1343H5.61088ZM10.3104 25.1343C10.4881 25.1343 10.6322 25.2651 10.6322 25.4265V26.5939C10.6322 26.7552 10.4881 26.886 10.3104 26.886H8.29161C8.11387 26.886 7.96979 26.7552 7.96979 26.5939V25.4265C7.96979 25.2651 8.11387 25.1343 8.29161 25.1343H10.3104ZM15.0099 25.1343C15.1877 25.1343 15.3318 25.2651 15.3318 25.4265V26.5939C15.3318 26.7552 15.1877 26.886 15.0099 26.886H12.9911C12.8134 26.886 12.6693 26.7552 12.6693 26.5939V25.4265C12.6693 25.2651 12.8134 25.1343 12.9911 25.1343H15.0099ZM5.61088 21.0371C5.78862 21.0371 5.93271 21.1679 5.93271 21.3293V22.4967C5.93271 22.658 5.78862 22.7888 5.61088 22.7888H3.59209C3.41435 22.7888 3.27026 22.658 3.27026 22.4967V21.3293C3.27026 21.1679 3.41435 21.0371 3.59209 21.0371H5.61088ZM10.3104 21.0371C10.4881 21.0371 10.6322 21.1679 10.6322 21.3293V22.4967C10.6322 22.658 10.4881 22.7888 10.3104 22.7888H8.29161C8.11387 22.7888 7.96979 22.658 7.96979 22.4967V21.3293C7.96979 21.1679 8.11387 21.0371 8.29161 21.0371H10.3104ZM15.0099 21.0371C15.1877 21.0371 15.3318 21.1679 15.3318 21.3293V22.4967C15.3318 22.658 15.1877 22.7888 15.0099 22.7888H12.9911C12.8134 22.7888 12.6693 22.658 12.6693 22.4967V21.3293C12.6693 21.1679 12.8134 21.0371 12.9911 21.0371H15.0099Z" fill="#E1EFFB"/>
<path d="M35.1409 32.4402H0.859053C0.384581 32.4402 0 32.7893 0 33.2201C0 33.6509 0.384581 34.0001 0.859053 34.0001H35.1409C35.6154 34.0001 36 33.6509 36 33.2201C36 32.7894 35.6153 32.4402 35.1409 32.4402Z" fill="url(#paint8_radial)"/>
<defs>
<radialGradient id="paint0_radial" cx="0" cy="0" r="1" gradientUnits="userSpaceOnUse" gradientTransform="translate(5.60963 16.4109) rotate(90) scale(3.36748 5.17747)">
<stop stop-color="#E71658"/>
<stop offset="1" stop-color="#4B154A"/>
</radialGradient>
<radialGradient id="paint1_radial" cx="0" cy="0" r="1" gradientUnits="userSpaceOnUse" gradientTransform="translate(28.7597 3.87402) rotate(90) scale(6.50271 1.15861)">
<stop stop-color="#E71658"/>
<stop offset="1" stop-color="#4B154A"/>
</radialGradient>
<radialGradient id="paint2_radial" cx="0" cy="0" r="1" gradientUnits="userSpaceOnUse" gradientTransform="translate(28.7596 8.4679) rotate(90) scale(3.11341 3.16774)">
<stop stop-color="#E71658"/>
<stop offset="1" stop-color="#4B154A"/>
</radialGradient>
<radialGradient id="paint3_radial" cx="0" cy="0" r="1" gradientUnits="userSpaceOnUse" gradientTransform="translate(28.7596 10.8562) rotate(90) scale(6.3087 8.61284)">
<stop stop-color="#E71658"/>
<stop offset="1" stop-color="#4B154A"/>
</radialGradient>
<radialGradient id="paint4_radial" cx="0" cy="0" r="1" gradientUnits="userSpaceOnUse" gradientTransform="translate(28.3511 13.2765) rotate(90) scale(22.105 13.0774)">
<stop stop-color="#E71658"/>
<stop offset="1" stop-color="#4B154A"/>
</radialGradient>
<radialGradient id="paint5_radial" cx="0" cy="0" r="1" gradientUnits="userSpaceOnUse" gradientTransform="translate(18.0884 0.609619) rotate(90) scale(35.6163 15.9756)">
<stop stop-color="#E71658"/>
<stop offset="1" stop-color="#CB134D"/>
</radialGradient>
<radialGradient id="paint6_radial" cx="0" cy="0" r="1" gradientUnits="userSpaceOnUse" gradientTransform="translate(17.9999) rotate(90) scale(1.77183 17.9668)">
<stop stop-color="#E71658"/>
<stop offset="1" stop-color="#CB134D"/>
</radialGradient>
<radialGradient id="paint7_radial" cx="0" cy="0" r="1" gradientUnits="userSpaceOnUse" gradientTransform="translate(9.40437 18.5806) rotate(90) scale(16.4474 16.7345)">
<stop stop-color="#E71658"/>
<stop offset="1" stop-color="#CB134D"/>
</radialGradient>
<radialGradient id="paint8_radial" cx="0" cy="0" r="1" gradientUnits="userSpaceOnUse" gradientTransform="translate(18 32.4402) rotate(90) scale(1.66388 37.4972)">
<stop stop-color="#E71658"/>
<stop offset="1" stop-color="#CB134D"/>
</radialGradient>
</defs>
</svg>
