<svg width="33" height="33" viewBox="0 0 33 33" fill="none" xmlns="http://www.w3.org/2000/svg">
<path fill-rule="evenodd" clip-rule="evenodd" d="M32.8732 10.8745C32.8733 10.8965 32.8734 10.9184 32.8734 10.9404C32.8734 15.875 29.858 20.6711 23.5672 25.9105L23.5563 25.9252C21.9831 27.2338 20.2008 28.5773 18.2094 29.9555C17.9219 30.1547 17.6299 30.3546 17.3336 30.5553C17.0615 30.7378 16.7491 30.829 16.4367 30.829C16.1243 30.829 15.8119 30.7378 15.5398 30.5553C15.2435 30.3546 14.9515 30.1547 14.664 29.9555C12.6726 28.5773 10.8903 27.2338 9.31713 25.9252L9.30615 25.9105C3.01542 20.6711 0 15.875 0 10.9404C0 10.9184 5.8263e-05 10.8965 0.000174655 10.8746C-0.00556118 9.8012 0.143338 8.73871 0.437494 7.71963C0.74789 6.61743 1.2164 5.59884 1.82026 4.70969C2.49519 3.66271 3.39524 2.813 4.43244 2.20969C5.53946 1.55197 6.81611 1.17859 8.21817 1.17859C8.21821 1.17859 8.21825 1.17859 8.21829 1.17859C8.21849 1.17859 8.21869 1.17859 8.21889 1.17859C11.5098 1.24021 14.5695 2.91295 16.4367 5.67123C18.3039 2.91295 21.3636 1.24021 24.6545 1.17859C24.6547 1.17859 24.6549 1.17859 24.6551 1.17859C24.6551 1.17859 24.6552 1.17859 24.6552 1.17859C26.0573 1.17859 27.3339 1.55198 28.441 2.20969C29.4782 2.813 30.3782 3.66271 31.0531 4.70969C31.657 5.59879 32.1255 6.61733 32.4358 7.71946C32.73 8.73857 32.8789 9.8011 32.8732 10.8745Z" fill="url(#paint0_radial)"/>
<path fill-rule="evenodd" clip-rule="evenodd" d="M10.7471 6.04439C10.7471 6.47072 10.4075 6.81633 9.98854 6.81633C9.56959 6.81633 9.22997 6.47072 9.22997 6.04439C9.22997 5.61807 9.56959 5.27246 9.98854 5.27246C10.4075 5.27246 10.7471 5.61807 10.7471 6.04439ZM3.92005 12.2199C3.92005 12.6463 4.25967 12.9919 4.67862 12.9919C4.87981 12.9919 5.07275 12.9105 5.21501 12.7658C5.35727 12.621 5.43719 12.4247 5.43719 12.2199C5.43403 10.2915 6.42702 8.50331 8.05199 7.51114C8.42799 7.32057 8.58099 6.8559 8.39372 6.47327C8.20645 6.09064 7.74983 5.93495 7.37382 6.12552C5.23382 7.3817 3.91668 9.7059 3.92005 12.2199Z" fill="#FB7B76"/>
<defs>
<radialGradient id="paint0_radial" cx="0" cy="0" r="1" gradientUnits="userSpaceOnUse" gradientTransform="translate(16.4367 1.17859) rotate(90) scale(31.6271 34.2406)">
<stop stop-color="#E71658"/>
<stop offset="1" stop-color="#4B154A"/>
</radialGradient>
</defs>
</svg>
