<svg width="34" height="34" viewBox="0 0 34 34" fill="none" xmlns="http://www.w3.org/2000/svg">
<g clip-path="url(#clip0)">
<path d="M22.1005 29.6795V28.9816C22.1005 28.7898 22.1892 28.6088 22.3407 28.4913C22.661 28.2428 22.661 27.7591 22.3407 27.5106C22.1892 27.3931 22.1005 27.2121 22.1005 27.0203V26.3223C22.1005 26.0783 22.2984 25.8805 22.5424 25.8805C22.7864 25.8805 22.9842 25.6826 22.9842 25.4385V24.9372C22.9842 24.6931 22.7864 24.4953 22.5424 24.4953C22.2983 24.4953 22.1005 24.2974 22.1005 24.0534V22.7199C22.1005 22.4759 22.2984 22.278 22.5424 22.278C22.7864 22.278 22.9842 22.0801 22.9842 21.8361V19.5837H17.9867V30.9617C17.9867 31.4126 18.152 31.8479 18.4512 32.1852L19.7789 33.6819C20.1547 34.1056 20.8163 34.1056 21.1921 33.6819L22.5198 32.1852C22.8191 31.8479 22.9843 31.4126 22.9843 30.9617V30.5633C22.9843 30.3193 22.7864 30.1214 22.5424 30.1214C22.2984 30.1215 22.1005 29.9236 22.1005 29.6795Z" fill="url(#paint0_radial)"/>
<path d="M21.2826 19.5839V31.3915C21.2826 31.8318 20.9257 32.1887 20.4854 32.1887C20.0452 32.1887 19.6882 31.8318 19.6882 31.3915V19.5839H21.2826Z" fill="#E71658"/>
<path d="M20.4855 6.88831C16.5031 6.88831 13.2747 10.1167 13.2747 14.0991C13.2747 18.0815 16.5031 21.3099 20.4855 21.3099C24.4679 21.3099 27.6963 18.0815 27.6963 14.0991C27.6963 10.1167 24.4679 6.88831 20.4855 6.88831ZM20.4855 13.4047C19.3565 13.4047 18.4409 12.4899 18.4409 11.3602C18.4409 10.2312 19.3565 9.31644 20.4855 9.31644C21.6145 9.31644 22.53 10.2312 22.53 11.3602C22.53 12.4899 21.6145 13.4047 20.4855 13.4047Z" fill="url(#paint1_radial)"/>
<path d="M20.4855 6.88831C16.5031 6.88831 13.2747 10.1167 13.2747 14.0991C13.2747 18.0815 16.5031 21.3099 20.4855 21.3099C24.4679 21.3099 27.6963 18.0815 27.6963 14.0991C27.6963 10.1167 24.4679 6.88831 20.4855 6.88831ZM20.4855 13.4047C19.3565 13.4047 18.4409 12.4899 18.4409 11.3602C18.4409 10.2312 19.3565 9.31644 20.4855 9.31644C21.6145 9.31644 22.53 10.2312 22.53 11.3602C22.53 12.4899 21.6145 13.4047 20.4855 13.4047Z" fill="url(#paint2_linear)"/>
<path d="M8.69318 25.4876L9.18665 24.9941C9.32225 24.8585 9.51292 24.7933 9.70318 24.8173C10.1053 24.8681 10.4474 24.526 10.3966 24.1239C10.3726 23.9336 10.4379 23.7429 10.5735 23.6073L11.0669 23.1139C11.2395 22.9413 11.5193 22.9413 11.6919 23.1139C11.8645 23.2865 12.1443 23.2865 12.3168 23.1139L12.6713 22.7594C12.8439 22.5868 12.8439 22.307 12.6713 22.1345C12.4987 21.9619 12.4987 21.6821 12.6713 21.5095L13.6142 20.5666C13.7868 20.394 14.0666 20.394 14.2391 20.5666C14.4117 20.7392 14.6915 20.7392 14.8641 20.5666L16.4567 18.9739L12.9229 15.4401L4.87765 23.4853C4.55878 23.8041 4.36785 24.2287 4.34092 24.6789L4.22145 26.6761C4.18765 27.2413 4.65545 27.7091 5.22072 27.6753L7.21792 27.5559C7.66805 27.5289 8.09265 27.338 8.41152 27.0191L8.69318 26.7375C8.86578 26.5649 8.86578 26.2851 8.69318 26.1125C8.52058 25.9399 8.52058 25.6602 8.69318 25.4876Z" fill="url(#paint3_radial)"/>
<path d="M15.2536 17.7705L6.90436 26.1197C6.59302 26.4311 6.08829 26.4311 5.77696 26.1197C5.46562 25.8084 5.46562 25.3037 5.77696 24.9923L14.1262 16.6431L15.2536 17.7705Z" fill="url(#paint4_radial)"/>
<path d="M23.667 8.22963C20.8511 5.41369 16.2854 5.41369 13.4694 8.22963C10.6534 11.0456 10.6535 15.6112 13.4694 18.4272C16.2853 21.2432 20.851 21.2432 23.667 18.4272C26.483 15.6113 26.483 11.0456 23.667 8.22963ZM19.0593 12.8374C18.2609 12.039 18.2604 10.7448 19.0593 9.94596C19.8576 9.14763 21.1518 9.14823 21.9501 9.94649C22.7485 10.7448 22.749 12.039 21.9507 12.8374C21.1518 13.6362 19.8575 13.6357 19.0593 12.8374Z" fill="url(#paint5_radial)"/>
<path d="M21.78 12.9899L26.6432 17.853C27.3112 16.7595 27.6962 15.4745 27.6962 14.0993C27.6962 13.1419 27.5092 12.2282 27.1703 11.3923C26.5412 11.9916 24.9558 13.0773 21.78 12.9899Z" fill="url(#paint6_linear)"/>
<path d="M23.2073 0C19.6486 0 16.7408 2.84433 16.6381 6.3798C17.5945 6.1152 18.5939 6.05107 19.5713 6.18807C19.7638 4.35187 21.3208 2.9158 23.2073 2.9158C25.2243 2.9158 26.8645 4.55667 26.8645 6.57293C26.8645 7.98927 26.0546 9.22047 24.8745 9.82767C24.3744 10.085 23.8073 10.2301 23.2073 10.2301C22.7977 10.2301 22.404 10.1623 22.0359 10.0376H22.0352C21.6037 9.89107 21.2086 9.66587 20.866 9.38007C20.2303 9.2656 19.551 9.4544 19.0597 9.94573C18.7265 10.2789 18.5327 10.698 18.4779 11.131C19.3571 12.0451 20.4993 12.7048 21.7801 12.9898C22.2401 13.0919 22.7175 13.1458 23.2073 13.1458C24.1069 13.1458 24.9648 12.9643 25.7463 12.6355C28.1139 11.6405 29.7803 9.29767 29.7803 6.57287C29.7803 2.9486 26.8317 0 23.2073 0V0Z" fill="url(#paint7_radial)"/>
</g>
<defs>
<radialGradient id="paint0_radial" cx="0" cy="0" r="1" gradientUnits="userSpaceOnUse" gradientTransform="translate(20.4855 19.5837) rotate(90) scale(15.377 5.20545)">
<stop stop-color="#E71658"/>
<stop offset="1" stop-color="#CB134D"/>
</radialGradient>
<radialGradient id="paint1_radial" cx="0" cy="0" r="1" gradientUnits="userSpaceOnUse" gradientTransform="translate(20.4855 6.88831) rotate(90) scale(15.383 15.0214)">
<stop stop-color="#E71658"/>
<stop offset="1" stop-color="#CB134D"/>
</radialGradient>
<linearGradient id="paint2_linear" x1="25.9191" y1="19.5327" x2="21.0289" y2="14.6425" gradientUnits="userSpaceOnUse">
<stop stop-color="#FF9100" stop-opacity="0"/>
<stop offset="1" stop-color="#FF9100"/>
</linearGradient>
<radialGradient id="paint3_radial" cx="0" cy="0" r="1" gradientUnits="userSpaceOnUse" gradientTransform="translate(10.3382 15.4401) rotate(90) scale(13.0528 12.7459)">
<stop stop-color="#E71658"/>
<stop offset="1" stop-color="#CB134D"/>
</radialGradient>
<radialGradient id="paint4_radial" cx="0" cy="0" r="1" gradientUnits="userSpaceOnUse" gradientTransform="translate(10.3985 16.6431) rotate(90) scale(10.3575 10.114)">
<stop stop-color="#E71658"/>
<stop offset="1" stop-color="#CB134D"/>
</radialGradient>
<radialGradient id="paint5_radial" cx="0" cy="0" r="1" gradientUnits="userSpaceOnUse" gradientTransform="translate(18.5682 6.11768) rotate(90) scale(15.383 15.0214)">
<stop stop-color="#E71658"/>
<stop offset="1" stop-color="#CB134D"/>
</radialGradient>
<linearGradient id="paint6_linear" x1="25.5908" y1="15.5891" x2="24.5703" y2="12.4547" gradientUnits="userSpaceOnUse">
<stop stop-color="#FF9100" stop-opacity="0"/>
<stop offset="1" stop-color="#FF9100"/>
</linearGradient>
<radialGradient id="paint7_radial" cx="0" cy="0" r="1" gradientUnits="userSpaceOnUse" gradientTransform="translate(23.2092) rotate(90) scale(14.0222 13.6888)">
<stop stop-color="#E71658"/>
<stop offset="1" stop-color="#4B154A"/>
</radialGradient>
<clipPath id="clip0">
<rect width="34" height="34" fill="white"/>
</clipPath>
</defs>
</svg>
